<?xml version="1.0" encoding="utf-8"?>
<!-- Svg Vector Icons : http://www.onlinewebfonts.com/icon -->
<!DOCTYPE svg PUBLIC "-//W3C//DTD SVG 1.1//EN" "http://www.w3.org/Graphics/SVG/1.1/DTD/svg11.dtd">
<svg version="1.1" xmlns="http://www.w3.org/2000/svg" xmlns:xlink="http://www.w3.org/1999/xlink" x="0px" y="0px" viewBox="0 0 256 256" enable-background="new 0 0 256 256" xml:space="preserve">
<metadata> Svg Vector Icons : http://www.onlinewebfonts.com/icon </metadata>
<g><g><g><path fill="#000000" d="M125.4,11.1l-1.3,1.1l-0.2,10.9L123.6,34l-2.4,0.8c-5.6,1.9-9.9,6.5-11.9,12.4c-1,3-1.2,8.6-0.3,11.2c0.5,1.5,0.5,1.8,0,2.4c-0.4,0.3-9.9,6.3-21.1,13.3L67.5,87l-1.8-1.7c-3-2.8-6.4-4-11.4-4.2c-5.8-0.2-8.8,0.7-14.1,4.7c-0.4,0.3-4.2-2.2-12-7.7c-6.3-4.4-11.9-8.3-12.5-8.6c-1.6-0.9-2.9-0.6-4.3,0.8c-1.4,1.4-1.7,2.6-0.9,4.3c0.3,0.6,5.8,4.7,12.3,9.3c6.5,4.5,11.8,8.4,11.9,8.6c0.1,0.2-0.1,1.9-0.6,3.7c-2.2,9.7,3.5,19.6,13,22.8l2.1,0.7l-0.1,24l-0.1,24l-2.4,0.8c-4.7,1.7-8.8,5.3-11,10c-5.6,11.8,1.7,25.4,14.8,27.8c4.9,0.9,11.2-0.8,15.4-4.2l1.8-1.5l16,10.2c14,8.9,16.3,10.2,17.4,10c1.7-0.4,2.9-1.4,3.3-2.9c0.6-2.7,0-3.3-16.6-13.8c-15-9.5-15.9-10.1-15.6-11.2c1.8-7.1,0.7-12.7-3.5-18.3c-2.1-2.7-5.1-4.9-8.9-6.3l-2.7-1v-23.8v-23.8l2.1-0.6c8.8-2.4,14.9-12.3,13.5-21.6c-0.2-1.4-0.5-3-0.5-3.4C72,93.6,77.7,89.9,93,80.4l21-13.1l2.9,2c3.5,2.4,6.9,3.5,11.2,3.5c4.2,0,7.7-1.1,11.2-3.5l2.9-2l21,13c15.3,9.5,21,13.3,20.9,13.9c0,0.4-0.3,2-0.5,3.6c-1.2,7.3,2.4,15,8.7,19.1c1.5,0.9,3.6,2,4.7,2.3l2.1,0.6v23.9v23.8l-1.7,0.6c-5.4,1.7-9.7,5.4-12.1,10.2c-2.3,4.6-2.6,8.9-1.2,14.7c0.3,1.1-0.6,1.7-15.5,11.1c-11.2,7.1-16,10.3-16.4,11.2c-1.2,2.5,0.6,5.3,3.4,5.3c1.3,0,4.6-1.9,17.2-9.9l15.6-10l3,2c4.1,2.8,7.1,3.7,11.6,3.7c4.2,0,7.6-1.2,11.2-3.6l2.3-1.6l12.1,8.5c9.9,7,12.4,8.5,13.6,8.5c3,0,4.8-3.4,3.1-5.9c-0.4-0.6-6-4.7-12.6-9.4l-11.9-8.3l0.6-1.8c3.4-9.7-2.2-21-11.9-24.4l-2.4-0.8l-0.1-24l-0.1-24l2.1-0.7c3.3-1.1,5.8-2.7,8.2-5.3c8.9-9.6,5.9-25.1-6-31c-2.6-1.3-3.6-1.6-7.3-1.7c-5.9-0.3-9.8,1.1-13.9,4.6l-1.5,1.3l-20.9-13C151,63.6,146.7,60.7,146.8,60c0-0.5,0.3-2.3,0.6-3.9c1.6-9-4.1-18.4-13-21.5l-2.1-0.7L132.1,23l-0.1-10.8l-1.3-1.1C129,9.7,127,9.7,125.4,11.1z M133.4,42.8c8.6,4.3,8.3,17.2-0.6,21.2c-2.5,1.2-7.2,1.2-9.7,0c-10.1-4.7-8.6-19.5,2.2-22.2C127.6,41.2,131.1,41.6,133.4,42.8z M57.1,89.4c1,0.3,2.7,1.3,3.8,2.3c6.9,6,4.5,17.4-4.1,20c-2.9,0.9-4.1,0.9-7.1,0c-5.2-1.5-8.9-7.3-8.1-12.5C42.7,91.6,49.8,87.2,57.1,89.4z M207.5,89.7c7.6,3.4,9.3,13.1,3.5,18.9c-3.3,3.3-7.3,4.4-11.7,3c-4.9-1.5-8.2-5.9-8.2-11.2c0-3.3,0.8-5.5,2.9-7.8C197.2,89.1,203.3,87.8,207.5,89.7z M58.2,176.4c4.2,1.8,6.7,5.8,6.7,10.7c0,3.5-1,6-3.2,8.2c-6.6,6.7-17.8,3.3-19.9-6c-1.6-7.3,5.3-14.8,12.8-13.9C55.5,175.5,57.2,175.9,58.2,176.4z M208,176.5c4.2,2.1,6.4,5.8,6.4,10.5c0,6.5-5,11.6-11.4,11.7c-3.4,0-5.9-1-8.3-3.3c-2.5-2.4-3.5-4.8-3.5-8.4c0-3.5,1-6,3.2-8.2C198,175.1,203.4,174.2,208,176.5z"/><path fill="#000000" d="M145.5,84.6c-1.7,1.7-1.7,3.3,0,5.1c1.1,1.2,18.3,11.4,21.9,13c1.8,0.8,4-0.2,4.8-2.2c0.7-1.7,0.4-3.2-1-4.4c-2-1.8-21.9-12.9-23.1-12.9C147.3,83.3,146.3,83.8,145.5,84.6z"/><path fill="#000000" d="M66.4,129.1l-1.3,1.1v13.4V157l1.1,1.2c1.6,1.7,4.1,1.7,5.6,0l1.1-1.2v-13.4v-13.4l-1.3-1.1c-0.7-0.6-1.9-1.1-2.6-1.1C68.3,128,67.1,128.5,66.4,129.1z"/><path fill="#000000" d="M184.4,129.1l-1.3,1.1v13.4V157l1.1,1.2c1.6,1.7,4.1,1.7,5.6,0l1.1-1.2v-13.4v-13.4l-1.3-1.1c-0.7-0.6-1.9-1.1-2.6-1.1C186.3,128,185.1,128.5,184.4,129.1z"/><path fill="#000000" d="M113.5,208l-1.2,1.1v17.2c0,18.1,0,18.1,2.2,19.2c1.6,0.9,2.9,0.6,4.3-0.8l1.3-1.3v-6.5v-6.5h7.8h7.8v6.5v6.5l1.3,1.3c1.4,1.4,2.7,1.7,4.3,0.8c2.1-1.1,2.1-1.1,2.2-19.2v-17.2l-1.2-1.1c-0.7-0.8-1.6-1.2-2.8-1.2c-1.2,0-2,0.4-2.8,1.2c-1.1,1.1-1.2,1.3-1.2,7.8v6.7h-7.8h-7.8l-0.1-7c-0.1-6.7-0.2-7-1.2-7.8C117.3,206.5,114.9,206.6,113.5,208z"/></g></g></g>
</svg>