<?xml version="1.0" encoding="utf-8"?>
<!-- Svg Vector Icons : http://www.onlinewebfonts.com/icon -->
<!DOCTYPE svg PUBLIC "-//W3C//DTD SVG 1.1//EN" "http://www.w3.org/Graphics/SVG/1.1/DTD/svg11.dtd">
<svg version="1.1" xmlns="http://www.w3.org/2000/svg" xmlns:xlink="http://www.w3.org/1999/xlink" x="0px" y="0px" viewBox="0 0 256 256" enable-background="new 0 0 256 256" xml:space="preserve">
<metadata> Svg Vector Icons : http://www.onlinewebfonts.com/icon </metadata>
<g><g><g><g><path fill="#000000" d="M127.8,100.3c32.8,0,59.5,26.6,59.5,59.5c0,32.8-26.6,59.5-59.5,59.5c-32.8,0-59.5-26.6-59.5-59.5C68.4,126.9,95,100.3,127.8,100.3z"/><path fill="#000000" d="M192.9,137.9c-0.1,0-0.2,0-0.3,0c2.4,6.9,3.8,14.2,3.8,21.9c0,28.5-17.9,52.8-43,62.5c9.4,11.3,23.6,18.5,39.5,18.5c28.4,0,51.5-23,51.5-51.5C244.4,161,221.4,137.9,192.9,137.9z"/><path fill="#000000" d="M58.9,159.8c0-7.7,1.3-15,3.7-21.8c-27.9,0.6-50.2,23.4-50.2,51.4c0,28.4,23,51.5,51.5,51.5c15.7,0,29.7-7.1,39.2-18.1C77.4,213.3,58.9,188.7,58.9,159.8z"/><path fill="#000000" d="M182.8,91.1c15.4,7,33.5,0.2,40.5-15.2c7-15.4,0.2-33.5-15.2-40.5c-15.4-7-33.5-0.2-40.5,15.2C160.6,65.9,167.4,84.1,182.8,91.1z"/><path fill="#000000" d="M194.2,97.8c2,7.3,7.1,13.7,14.5,17c13.3,6,28.9,0.1,34.9-13.1c6-13.3,0.1-28.9-13.1-34.9c0,0-0.1,0-0.1,0c-0.4,3.7-1.3,7.4-2.9,11C221.5,91.1,207.9,98.6,194.2,97.8z"/><path fill="#000000" d="M148.5,87.5c7.3,3.3,15.4,3,22.1-0.2c-10-9.8-13.4-25.2-7.2-38.7c1.6-3.6,3.8-6.7,6.4-9.4c-13.1-5.6-28.4,0.3-34.3,13.4C129.3,65.8,135.2,81.5,148.5,87.5z"/><path fill="#000000" d="M53.9,15.8c15.7,0,28.5,12.7,28.5,28.5S69.6,72.7,53.9,72.7S25.4,60,25.4,44.2S38.2,15.8,53.9,15.8z"/><path fill="#000000" d="M82.2,27c7.2,11.8,5.9,26.3-2,36.7c6.8,2.3,14.4,1.7,21-2.3c11.8-7.2,15.5-22.5,8.3-34.2c-7.2-11.8-22.5-15.5-34.2-8.3c0,0-0.1,0-0.1,0.1C77.9,21.1,80.3,23.8,82.2,27z"/><path fill="#000000" d="M47.9,93.9c6.5-4,10.5-10.4,11.6-17.4c-13,2.6-26.8-2.9-34.1-14.9c-1.9-3.2-3.2-6.5-4-9.9C10.1,59,6.6,74,13.6,85.5C20.8,97.3,36.1,101,47.9,93.9z"/></g></g><g></g><g></g><g></g><g></g><g></g><g></g><g></g><g></g><g></g><g></g><g></g><g></g><g></g><g></g><g></g></g></g>
</svg>