<?xml version="1.0" encoding="UTF-8"?>
<svg xmlns="http://www.w3.org/2000/svg" xmlns:xlink="http://www.w3.org/1999/xlink" width="90.1pt" height="63.6pt" viewBox="0 0 90.1 63.6" version="1.1">
<defs>
<clipPath id="clip1">
  <path d="M 21 59 L 76 59 L 76 63.601563 L 21 63.601563 Z M 21 59 "/>
</clipPath>
</defs>
<g id="surface1">
<path style=" stroke:none;fill-rule:evenodd;fill:rgb(13.719177%,12.156677%,12.547302%);fill-opacity:1;" d="M 19.394531 52.316406 L 19.394531 46.105469 L 21.28125 46.105469 L 22.394531 50.34375 L 23.496094 46.105469 L 25.382813 46.105469 L 25.382813 52.316406 L 24.222656 52.316406 L 24.21875 47.425781 L 22.992188 52.316406 L 21.78125 52.316406 L 20.5625 47.425781 L 20.558594 52.316406 Z M 27.519531 49.207031 L 26.441406 49.011719 C 26.5625 48.570313 26.773438 48.246094 27.070313 48.035156 C 27.367188 47.828125 27.808594 47.71875 28.394531 47.71875 C 28.921875 47.71875 29.320313 47.78125 29.582031 47.90625 C 29.839844 48.03125 30.023438 48.191406 30.128906 48.386719 C 30.234375 48.582031 30.289063 48.933594 30.289063 49.457031 L 30.269531 50.839844 C 30.269531 51.234375 30.289063 51.527344 30.328125 51.714844 C 30.363281 51.902344 30.433594 52.105469 30.539063 52.316406 L 29.359375 52.316406 C 29.328125 52.242188 29.289063 52.128906 29.246094 51.972656 C 29.226563 51.902344 29.210938 51.855469 29.203125 51.835938 C 29 52.03125 28.78125 52.179688 28.550781 52.28125 C 28.320313 52.378906 28.074219 52.429688 27.8125 52.429688 C 27.351563 52.429688 26.988281 52.304688 26.71875 52.054688 C 26.453125 51.804688 26.320313 51.484375 26.320313 51.101563 C 26.320313 50.847656 26.382813 50.621094 26.503906 50.421875 C 26.625 50.222656 26.792969 50.070313 27.015625 49.964844 C 27.234375 49.859375 27.546875 49.765625 27.960938 49.6875 C 28.515625 49.585938 28.902344 49.484375 29.117188 49.394531 L 29.117188 49.273438 C 29.117188 49.042969 29.058594 48.878906 28.945313 48.777344 C 28.832031 48.679688 28.617188 48.628906 28.304688 48.628906 C 28.089844 48.628906 27.925781 48.671875 27.808594 48.757813 C 27.6875 48.839844 27.59375 48.992188 27.519531 49.207031 Z M 29.117188 50.167969 C 28.964844 50.21875 28.722656 50.277344 28.390625 50.347656 C 28.0625 50.417969 27.84375 50.488281 27.742188 50.554688 C 27.589844 50.667969 27.511719 50.804688 27.511719 50.976563 C 27.511719 51.140625 27.574219 51.285156 27.695313 51.40625 C 27.820313 51.527344 27.980469 51.589844 28.171875 51.589844 C 28.386719 51.589844 28.589844 51.519531 28.785156 51.378906 C 28.929688 51.269531 29.023438 51.140625 29.070313 50.984375 C 29.101563 50.882813 29.117188 50.6875 29.117188 50.402344 Z M 35.589844 52.316406 L 34.488281 52.316406 L 34.488281 51.65625 C 34.304688 51.914063 34.085938 52.105469 33.835938 52.238281 C 33.585938 52.367188 33.332031 52.429688 33.078125 52.429688 C 32.558594 52.429688 32.117188 52.222656 31.746094 51.804688 C 31.375 51.386719 31.191406 50.804688 31.191406 50.058594 C 31.191406 49.292969 31.371094 48.714844 31.730469 48.316406 C 32.089844 47.917969 32.546875 47.71875 33.09375 47.71875 C 33.597656 47.71875 34.035156 47.929688 34.402344 48.347656 L 34.402344 46.105469 L 35.589844 46.105469 Z M 32.414063 49.980469 C 32.414063 50.464844 32.480469 50.808594 32.613281 51.023438 C 32.804688 51.339844 33.074219 51.492188 33.417969 51.492188 C 33.691406 51.492188 33.921875 51.378906 34.113281 51.140625 C 34.308594 50.90625 34.402344 50.558594 34.402344 50.09375 C 34.402344 49.578125 34.308594 49.207031 34.125 48.972656 C 33.9375 48.742188 33.699219 48.628906 33.410156 48.628906 C 33.125 48.628906 32.890625 48.742188 32.699219 48.96875 C 32.511719 49.195313 32.414063 49.53125 32.414063 49.980469 Z M 39.367188 50.894531 L 40.554688 51.09375 C 40.402344 51.53125 40.160156 51.859375 39.832031 52.089844 C 39.503906 52.316406 39.089844 52.429688 38.597656 52.429688 C 37.816406 52.429688 37.234375 52.175781 36.859375 51.664063 C 36.5625 51.253906 36.414063 50.734375 36.414063 50.109375 C 36.414063 49.363281 36.609375 48.777344 37 48.355469 C 37.386719 47.929688 37.882813 47.71875 38.476563 47.71875 C 39.144531 47.71875 39.671875 47.941406 40.0625 48.382813 C 40.445313 48.828125 40.632813 49.503906 40.613281 50.417969 L 37.636719 50.417969 C 37.648438 50.769531 37.742188 51.046875 37.925781 51.242188 C 38.109375 51.4375 38.335938 51.539063 38.609375 51.539063 C 38.796875 51.539063 38.953125 51.488281 39.078125 51.386719 C 39.203125 51.285156 39.300781 51.121094 39.367188 50.894531 Z M 39.433594 49.6875 C 39.425781 49.34375 39.335938 49.082031 39.167969 48.902344 C 39 48.71875 38.792969 48.628906 38.550781 48.628906 C 38.292969 48.628906 38.078125 48.726563 37.910156 48.914063 C 37.738281 49.105469 37.65625 49.363281 37.660156 49.6875 Z M 44 46.105469 L 45.1875 46.105469 L 45.1875 47.207031 L 44 47.207031 Z M 44 47.8125 L 45.1875 47.8125 L 45.1875 52.316406 L 44 52.316406 Z M 50.507813 52.316406 L 49.316406 52.316406 L 49.316406 50.023438 C 49.316406 49.535156 49.292969 49.222656 49.242188 49.085938 C 49.191406 48.9375 49.105469 48.832031 48.992188 48.753906 C 48.875 48.667969 48.738281 48.628906 48.574219 48.628906 C 48.367188 48.628906 48.179688 48.6875 48.015625 48.800781 C 47.847656 48.910156 47.734375 49.0625 47.675781 49.246094 C 47.613281 49.433594 47.582031 49.777344 47.582031 50.28125 L 47.582031 52.316406 L 46.394531 52.316406 L 46.394531 47.8125 L 47.496094 47.8125 L 47.496094 48.476563 C 47.890625 47.96875 48.386719 47.71875 48.988281 47.71875 C 49.25 47.71875 49.492188 47.765625 49.710938 47.859375 C 49.929688 47.960938 50.09375 48.078125 50.207031 48.222656 C 50.320313 48.371094 50.398438 48.535156 50.441406 48.722656 C 50.484375 48.910156 50.507813 49.175781 50.507813 49.523438 Z M 54.089844 46.105469 L 55.347656 46.105469 L 55.347656 52.316406 L 54.089844 52.316406 Z M 60.628906 52.316406 L 59.441406 52.316406 L 59.441406 50.023438 C 59.441406 49.535156 59.414063 49.222656 59.363281 49.085938 C 59.3125 48.9375 59.230469 48.832031 59.113281 48.753906 C 59 48.667969 58.859375 48.628906 58.699219 48.628906 C 58.488281 48.628906 58.304688 48.6875 58.136719 48.800781 C 57.972656 48.910156 57.859375 49.0625 57.796875 49.246094 C 57.734375 49.433594 57.707031 49.777344 57.707031 50.28125 L 57.707031 52.316406 L 56.515625 52.316406 L 56.515625 47.8125 L 57.621094 47.8125 L 57.621094 48.476563 C 58.015625 47.96875 58.511719 47.71875 59.109375 47.71875 C 59.375 47.71875 59.617188 47.765625 59.832031 47.859375 C 60.054688 47.960938 60.21875 48.078125 60.328125 48.222656 C 60.441406 48.371094 60.519531 48.535156 60.5625 48.722656 C 60.609375 48.910156 60.628906 49.175781 60.628906 49.523438 Z M 65.964844 52.316406 L 64.863281 52.316406 L 64.863281 51.65625 C 64.679688 51.914063 64.460938 52.105469 64.210938 52.238281 C 63.960938 52.367188 63.707031 52.429688 63.453125 52.429688 C 62.933594 52.429688 62.492188 52.222656 62.121094 51.804688 C 61.75 51.386719 61.566406 50.804688 61.566406 50.058594 C 61.566406 49.292969 61.746094 48.714844 62.105469 48.316406 C 62.464844 47.917969 62.921875 47.71875 63.46875 47.71875 C 63.972656 47.71875 64.410156 47.929688 64.777344 48.347656 L 64.777344 46.105469 L 65.964844 46.105469 Z M 62.789063 49.980469 C 62.789063 50.464844 62.855469 50.808594 62.988281 51.023438 C 63.179688 51.339844 63.449219 51.492188 63.792969 51.492188 C 64.066406 51.492188 64.300781 51.378906 64.488281 51.140625 C 64.683594 50.90625 64.777344 50.558594 64.777344 50.09375 C 64.777344 49.578125 64.683594 49.207031 64.5 48.972656 C 64.3125 48.742188 64.074219 48.628906 63.785156 48.628906 C 63.5 48.628906 63.265625 48.742188 63.074219 48.96875 C 62.886719 49.195313 62.789063 49.53125 62.789063 49.980469 Z M 67.136719 46.105469 L 68.324219 46.105469 L 68.324219 47.207031 L 67.136719 47.207031 Z M 67.136719 47.8125 L 68.324219 47.8125 L 68.324219 52.316406 L 67.136719 52.316406 Z M 70.433594 49.207031 L 69.355469 49.011719 C 69.480469 48.570313 69.6875 48.246094 69.984375 48.035156 C 70.28125 47.828125 70.722656 47.71875 71.308594 47.71875 C 71.835938 47.71875 72.234375 47.78125 72.496094 47.90625 C 72.753906 48.03125 72.9375 48.191406 73.042969 48.386719 C 73.148438 48.582031 73.203125 48.933594 73.203125 49.457031 L 73.183594 50.839844 C 73.183594 51.234375 73.203125 51.527344 73.242188 51.714844 C 73.277344 51.902344 73.347656 52.105469 73.453125 52.316406 L 72.273438 52.316406 C 72.242188 52.242188 72.203125 52.128906 72.160156 51.972656 C 72.140625 51.902344 72.125 51.855469 72.117188 51.835938 C 71.914063 52.03125 71.699219 52.179688 71.464844 52.28125 C 71.234375 52.378906 70.988281 52.429688 70.726563 52.429688 C 70.265625 52.429688 69.902344 52.304688 69.636719 52.054688 C 69.367188 51.804688 69.234375 51.484375 69.234375 51.101563 C 69.234375 50.847656 69.296875 50.621094 69.417969 50.421875 C 69.539063 50.222656 69.707031 50.070313 69.929688 49.964844 C 70.148438 49.859375 70.460938 49.765625 70.875 49.6875 C 71.429688 49.585938 71.816406 49.484375 72.03125 49.394531 L 72.03125 49.273438 C 72.03125 49.042969 71.972656 48.878906 71.859375 48.777344 C 71.746094 48.679688 71.53125 48.628906 71.21875 48.628906 C 71.007813 48.628906 70.839844 48.671875 70.722656 48.757813 C 70.601563 48.839844 70.507813 48.992188 70.433594 49.207031 Z M 72.03125 50.167969 C 71.878906 50.21875 71.636719 50.277344 71.304688 50.347656 C 70.976563 50.417969 70.757813 50.488281 70.65625 50.554688 C 70.503906 50.667969 70.425781 50.804688 70.425781 50.976563 C 70.425781 51.140625 70.488281 51.285156 70.609375 51.40625 C 70.734375 51.527344 70.894531 51.589844 71.085938 51.589844 C 71.300781 51.589844 71.503906 51.519531 71.699219 51.378906 C 71.84375 51.269531 71.9375 51.140625 71.984375 50.984375 C 72.015625 50.882813 72.03125 50.6875 72.03125 50.402344 Z M 72.03125 50.167969 "/>
<path style=" stroke:none;fill-rule:evenodd;fill:rgb(13.719177%,12.156677%,12.547302%);fill-opacity:1;" d="M 13.179688 28.609375 C 11.160156 29.039063 6.878906 29.726563 5.527344 27.578125 C 4.632813 26.152344 5.640625 26.765625 3.65625 25.535156 C 0.742188 23.71875 0.078125 20.34375 0.808594 17.464844 C 1.675781 14.019531 4.621094 12.132813 7.855469 11.089844 C 11.480469 9.921875 14.875 9.972656 18.574219 9.734375 C 20.347656 9.621094 22.007813 9.378906 24.375 8.675781 C 28.195313 7.539063 29.144531 6.851563 33.394531 6.890625 C 36.648438 6.921875 40.238281 7.296875 43.894531 7.339844 C 47.03125 7.367188 50.035156 7.027344 53.128906 6.550781 C 54.96875 6.269531 56.828125 5.925781 58.714844 5.527344 C 60.089844 5.234375 61.105469 5.007813 61.894531 3.714844 C 62.703125 2.398438 63.96875 1.78125 65.59375 1.722656 C 66.289063 1.695313 66.992188 1.84375 67.667969 1.882813 C 68.796875 1.953125 69.265625 1.628906 70.214844 1.101563 C 71.394531 0.453125 71.921875 0.492188 73.21875 0.457031 C 74.035156 0.425781 74.851563 0.402344 75.679688 0.292969 C 76.515625 0.179688 77.195313 -0.0585938 78.054688 0.203125 C 79.414063 0.609375 78.984375 1.140625 79.445313 1.644531 C 79.851563 2.089844 80.714844 1.972656 81.375 2.492188 C 82.640625 3.480469 82.039063 5.160156 82.839844 5.660156 C 83.320313 5.964844 83.894531 5.445313 84.449219 4.613281 C 84.617188 5.0625 84.691406 5.601563 84.5625 6.070313 C 84.300781 7.054688 83.746094 6.464844 84.5625 7.28125 C 85.851563 8.566406 85.648438 9.511719 86.015625 10.253906 C 86.179688 10.589844 86.894531 11.28125 87.191406 11.617188 C 87.828125 12.34375 88.457031 13.019531 89.074219 13.617188 C 89.898438 14.414063 90.195313 15.269531 88.988281 15.921875 C 88.433594 16.21875 88.699219 16.0625 88.347656 16.578125 C 88.070313 16.972656 87.75 17.210938 87.402344 17.34375 C 86.726563 17.609375 85.546875 17.5625 84.792969 17.550781 C 84.289063 17.542969 83.148438 17.59375 82.738281 17.914063 C 82.199219 18.332031 82.523438 19.1875 83.347656 18.898438 C 84.011719 18.664063 83.90625 18.269531 84.785156 18.828125 C 85.296875 19.144531 85.46875 19.609375 85.402344 20.042969 C 85.292969 20.769531 84.886719 20.53125 84.902344 21.523438 C 84.917969 22.34375 85.011719 23.390625 83.636719 23.445313 C 81.945313 23.511719 82.402344 23.65625 82.136719 22.585938 C 82.023438 22.128906 81.78125 21.925781 81.367188 22.085938 C 82.460938 24.792969 79.429688 23.902344 79.667969 26.226563 C 78.945313 25.867188 78.386719 25.050781 77.964844 23.84375 C 77.113281 25.128906 76.074219 25.996094 75.128906 27.078125 C 75.035156 26.488281 74.9375 25.902344 74.84375 25.316406 C 74.503906 26.421875 74.269531 27.648438 73.03125 28.589844 C 72.46875 29.019531 72.492188 28.742188 72.621094 29.453125 C 72.855469 30.777344 72.976563 32.175781 73.371094 33.1875 C 73.65625 33.921875 74.0625 34.152344 74.421875 34.777344 C 74.953125 35.703125 74.789063 36.382813 75.402344 36.503906 C 76.078125 36.636719 76.570313 36.414063 77.3125 36.882813 C 77.789063 37.179688 78.222656 38.113281 78.378906 38.652344 C 78.535156 39.171875 78.476563 39.554688 78.300781 39.835938 C 77.828125 40.582031 76.789063 40.402344 76.027344 40.382813 C 75.363281 40.367188 74.695313 40.347656 74.03125 40.332031 C 73.375 40.3125 72.382813 40.402344 71.871094 39.972656 C 71.203125 39.414063 71.257813 38.265625 70.738281 37.675781 C 70.390625 37.273438 69.683594 37.253906 69.164063 36.78125 C 68.90625 36.550781 68.675781 36.222656 68.503906 35.726563 C 68.191406 34.816406 68.324219 35.121094 67.59375 34.460938 C 66.910156 33.839844 66.273438 33.136719 65.75 32.386719 C 65.144531 31.519531 64.859375 30.320313 64.277344 29.695313 C 63.910156 29.292969 63.515625 29.195313 63.117188 29.15625 C 62.339844 29.085938 61.515625 29.070313 60.820313 28.679688 C 60.246094 28.355469 59.730469 27.855469 59.328125 27.507813 C 58.757813 27.015625 58.746094 27.054688 58.246094 27.675781 C 57.382813 28.742188 56.601563 30.65625 55.390625 32.300781 C 54.933594 32.914063 54.414063 33.40625 54.015625 34.0625 C 53.71875 34.558594 53.515625 35.058594 53.382813 35.554688 C 53.214844 36.1875 52.984375 36.578125 53.601563 37.003906 C 53.808594 37.140625 54.054688 37.300781 54.273438 37.515625 C 54.597656 37.839844 54.933594 37.933594 55.34375 38.105469 C 55.867188 38.328125 56.40625 38.679688 56.394531 39.214844 C 56.378906 40.269531 55.011719 40.589844 54.195313 40.691406 C 52.082031 41.003906 50.585938 40.890625 49.640625 40.296875 C 48.820313 39.78125 48.691406 39.222656 48.882813 38.453125 C 49.007813 37.960938 49.203125 37.882813 49.304688 37.597656 C 49.421875 37.269531 48.785156 37.367188 48.546875 36.753906 C 48.375 36.296875 48.394531 35.652344 48.710938 34.726563 C 49.265625 33.09375 49.351563 33.0625 49.632813 31.308594 C 49.683594 30.980469 49.75 30.652344 49.820313 30.332031 C 50.210938 28.550781 50.804688 26.9375 50.734375 26.054688 C 48.191406 26.273438 46.136719 26.328125 44.363281 25.765625 C 43.453125 25.476563 42.492188 24.988281 41.554688 24.652344 C 39.792969 24.015625 39.042969 23.664063 38.136719 25.6875 C 37.59375 26.894531 37.640625 28.929688 36.6875 30.628906 C 36.398438 31.144531 35.925781 31.527344 35.761719 32.042969 C 35.414063 33.128906 36.285156 34.0625 36.988281 34.769531 C 37.699219 35.484375 38.5625 36.136719 39.390625 36.359375 C 40.152344 36.558594 41.027344 36.347656 41.890625 36.53125 C 43.082031 36.789063 43.804688 38.183594 43.199219 39.207031 C 42.832031 39.832031 42.054688 39.859375 41.207031 39.859375 C 40.035156 39.867188 39.238281 40.128906 38.136719 40.203125 C 37.304688 40.253906 36.753906 40.164063 36.347656 39.898438 C 35.78125 39.527344 35.214844 38.660156 34.339844 38.0625 C 32.925781 37.097656 31.933594 36.492188 30.605469 35.355469 C 29.890625 34.742188 29.335938 34.222656 29.027344 33.648438 C 28.492188 32.667969 28.917969 31.535156 28.988281 30.441406 C 29.105469 28.726563 28.894531 27.457031 28.269531 26.734375 C 28.042969 26.382813 27.78125 26.222656 27.421875 26.734375 C 26.703125 27.398438 26.066406 27.484375 25.242188 27.429688 C 23.117188 27.988281 23.023438 30.0625 20.667969 30.820313 C 18.921875 30.96875 17.992188 33.277344 17.734375 35.429688 C 17.691406 35.78125 17.667969 36.140625 17.664063 36.492188 C 17.855469 36.902344 18 36.53125 18.441406 36.40625 C 19.890625 36.003906 21.882813 37.566406 21.65625 39.289063 C 21.519531 40.34375 20.429688 40.628906 18.144531 40.71875 C 17.144531 40.753906 16.414063 40.703125 15.875 40.566406 C 14.109375 40.136719 14.511719 39.003906 14.210938 37.753906 C 13.855469 36.292969 12.769531 35.917969 12.9375 34.1875 C 13.039063 33.121094 13.300781 32.621094 13.175781 31.410156 C 13.0625 30.296875 12.269531 29.382813 13.527344 28.527344 C 14 28.214844 14.628906 28.042969 15.21875 27.792969 C 14.996094 26.832031 15.300781 25.527344 15.878906 24.082031 C 16.300781 23.019531 16.722656 22.027344 17.136719 20.960938 C 17.570313 19.832031 18.175781 18.816406 18.894531 17.730469 C 19.511719 16.792969 19.972656 16.097656 20.476563 15.082031 C 20.890625 14.238281 21.285156 13.402344 21.746094 12.554688 C 16.871094 12.597656 13.191406 12.589844 10.808594 12.820313 C 7.484375 13.148438 3.699219 15.082031 2.957031 18.613281 C 2.460938 20.984375 3.945313 23.851563 6.363281 24.351563 C 6.996094 24.484375 7.757813 24.554688 8.484375 24.695313 C 10.214844 25.019531 12.523438 26.957031 13.179688 28.609375 Z M 13.179688 28.609375 "/>
<g clip-path="url(#clip1)" clip-rule="nonzero">
<path style=" stroke:none;fill-rule:evenodd;fill:rgb(13.719177%,12.156677%,12.547302%);fill-opacity:1;" d="M 21.378906 62.703125 L 21.378906 59.519531 L 21.808594 59.519531 L 23.476563 62.015625 L 23.476563 59.519531 L 23.882813 59.519531 L 23.882813 62.703125 L 23.449219 62.703125 L 21.78125 60.207031 L 21.78125 62.703125 Z M 24.539063 59.519531 L 24.929688 59.519531 L 24.929688 59.964844 L 24.539063 59.964844 Z M 24.539063 60.394531 L 24.929688 60.394531 L 24.929688 62.699219 L 24.539063 62.699219 Z M 26.375 62.351563 L 26.425781 62.695313 C 26.316406 62.71875 26.21875 62.730469 26.132813 62.730469 C 25.992188 62.730469 25.882813 62.710938 25.804688 62.664063 C 25.726563 62.617188 25.671875 62.558594 25.640625 62.484375 C 25.609375 62.417969 25.59375 62.257813 25.59375 62.023438 L 25.59375 60.695313 L 25.304688 60.695313 L 25.304688 60.394531 L 25.59375 60.394531 L 25.59375 59.824219 L 25.984375 59.589844 L 25.984375 60.394531 L 26.375 60.394531 L 26.375 60.695313 L 25.984375 60.695313 L 25.984375 62.046875 C 25.984375 62.15625 25.992188 62.230469 26.003906 62.261719 C 26.015625 62.292969 26.039063 62.320313 26.070313 62.339844 C 26.101563 62.355469 26.144531 62.367188 26.203125 62.367188 C 26.246094 62.367188 26.304688 62.359375 26.375 62.351563 Z M 28.332031 61.957031 L 28.734375 62.007813 C 28.671875 62.242188 28.554688 62.425781 28.382813 62.554688 C 28.210938 62.683594 27.992188 62.75 27.726563 62.75 C 27.390625 62.75 27.125 62.644531 26.925781 62.4375 C 26.730469 62.230469 26.632813 61.941406 26.632813 61.566406 C 26.632813 61.179688 26.730469 60.878906 26.929688 60.667969 C 27.128906 60.457031 27.386719 60.347656 27.703125 60.347656 C 28.011719 60.347656 28.261719 60.449219 28.457031 60.664063 C 28.652344 60.867188 28.75 61.167969 28.75 61.542969 C 28.75 61.566406 28.75 61.601563 28.746094 61.648438 L 27.03125 61.648438 C 27.046875 61.898438 27.117188 62.09375 27.246094 62.226563 C 27.375 62.359375 27.535156 62.429688 27.726563 62.429688 C 27.867188 62.429688 27.992188 62.390625 28.089844 62.316406 C 28.191406 62.238281 28.273438 62.117188 28.332031 61.957031 Z M 27.054688 61.332031 L 28.335938 61.332031 C 28.320313 61.132813 28.269531 60.988281 28.1875 60.890625 C 28.066406 60.742188 27.902344 60.667969 27.707031 60.667969 C 27.527344 60.667969 27.375 60.726563 27.253906 60.84375 C 27.132813 60.964844 27.066406 61.125 27.054688 61.332031 Z M 29.074219 62.011719 L 29.460938 61.949219 C 29.480469 62.101563 29.542969 62.222656 29.640625 62.304688 C 29.742188 62.386719 29.878906 62.429688 30.058594 62.429688 C 30.238281 62.429688 30.371094 62.390625 30.457031 62.320313 C 30.542969 62.25 30.589844 62.164063 30.589844 62.0625 C 30.589844 61.972656 30.550781 61.90625 30.472656 61.855469 C 30.417969 61.820313 30.285156 61.777344 30.070313 61.722656 C 29.785156 61.648438 29.589844 61.585938 29.476563 61.539063 C 29.367188 61.480469 29.28125 61.414063 29.226563 61.316406 C 29.167969 61.222656 29.140625 61.125 29.140625 61.007813 C 29.140625 60.90625 29.164063 60.808594 29.210938 60.722656 C 29.257813 60.636719 29.320313 60.5625 29.402344 60.503906 C 29.464844 60.460938 29.546875 60.421875 29.648438 60.390625 C 29.753906 60.359375 29.867188 60.347656 29.988281 60.347656 C 30.167969 60.347656 30.324219 60.375 30.460938 60.425781 C 30.597656 60.476563 30.699219 60.546875 30.765625 60.636719 C 30.828125 60.726563 30.875 60.84375 30.898438 60.992188 L 30.515625 61.046875 C 30.5 60.925781 30.449219 60.832031 30.367188 60.765625 C 30.285156 60.699219 30.167969 60.667969 30.015625 60.667969 C 29.835938 60.667969 29.707031 60.695313 29.632813 60.753906 C 29.554688 60.8125 29.519531 60.882813 29.519531 60.960938 C 29.519531 61.011719 29.535156 61.058594 29.566406 61.097656 C 29.597656 61.140625 29.648438 61.175781 29.714844 61.207031 C 29.753906 61.21875 29.867188 61.25 30.058594 61.300781 C 30.335938 61.375 30.527344 61.4375 30.636719 61.484375 C 30.746094 61.53125 30.832031 61.597656 30.894531 61.6875 C 30.957031 61.777344 30.988281 61.886719 30.988281 62.019531 C 30.988281 62.152344 30.949219 62.273438 30.875 62.386719 C 30.796875 62.503906 30.6875 62.589844 30.546875 62.652344 C 30.402344 62.71875 30.238281 62.75 30.058594 62.75 C 29.761719 62.75 29.53125 62.6875 29.375 62.5625 C 29.21875 62.4375 29.117188 62.253906 29.074219 62.011719 Z M 31.449219 62.703125 L 31.449219 59.519531 L 31.839844 59.519531 L 31.839844 60.667969 C 32.019531 60.457031 32.25 60.347656 32.527344 60.347656 C 32.695313 60.347656 32.84375 60.378906 32.96875 60.445313 C 33.09375 60.515625 33.183594 60.605469 33.238281 60.726563 C 33.292969 60.84375 33.320313 61.015625 33.320313 61.242188 L 33.320313 62.703125 L 32.929688 62.703125 L 32.929688 61.242188 C 32.929688 61.046875 32.886719 60.90625 32.800781 60.816406 C 32.71875 60.726563 32.597656 60.683594 32.445313 60.683594 C 32.332031 60.683594 32.222656 60.714844 32.121094 60.773438 C 32.019531 60.832031 31.949219 60.917969 31.90625 61.015625 C 31.863281 61.125 31.839844 61.261719 31.839844 61.441406 L 31.839844 62.703125 Z M 36.6875 61.457031 L 36.6875 61.082031 L 38.035156 61.082031 L 38.035156 62.257813 C 37.828125 62.421875 37.613281 62.546875 37.394531 62.628906 C 37.175781 62.710938 36.949219 62.753906 36.71875 62.753906 C 36.40625 62.753906 36.121094 62.6875 35.867188 62.550781 C 35.613281 62.417969 35.417969 62.226563 35.289063 61.972656 C 35.160156 61.71875 35.09375 61.4375 35.09375 61.125 C 35.09375 60.816406 35.160156 60.527344 35.289063 60.257813 C 35.417969 59.992188 35.605469 59.792969 35.847656 59.664063 C 36.089844 59.53125 36.371094 59.464844 36.6875 59.464844 C 36.914063 59.464844 37.125 59.503906 37.308594 59.582031 C 37.496094 59.652344 37.640625 59.757813 37.746094 59.890625 C 37.851563 60.023438 37.933594 60.195313 37.988281 60.414063 L 37.605469 60.515625 C 37.558594 60.351563 37.5 60.226563 37.429688 60.132813 C 37.359375 60.042969 37.257813 59.964844 37.125 59.914063 C 36.996094 59.855469 36.847656 59.832031 36.6875 59.832031 C 36.496094 59.832031 36.332031 59.855469 36.191406 59.917969 C 36.050781 59.972656 35.9375 60.050781 35.851563 60.144531 C 35.765625 60.242188 35.699219 60.347656 35.652344 60.460938 C 35.570313 60.65625 35.53125 60.875 35.53125 61.101563 C 35.53125 61.386719 35.578125 61.625 35.675781 61.816406 C 35.773438 62.003906 35.914063 62.148438 36.101563 62.242188 C 36.289063 62.332031 36.484375 62.378906 36.695313 62.378906 C 36.878906 62.378906 37.054688 62.34375 37.226563 62.273438 C 37.402344 62.207031 37.53125 62.128906 37.621094 62.046875 L 37.621094 61.457031 Z M 38.601563 62.703125 L 38.601563 60.394531 L 38.953125 60.394531 L 38.953125 60.75 C 39.042969 60.585938 39.125 60.476563 39.203125 60.425781 C 39.277344 60.375 39.363281 60.347656 39.453125 60.347656 C 39.585938 60.347656 39.71875 60.386719 39.855469 60.46875 L 39.714844 60.832031 C 39.621094 60.777344 39.527344 60.75 39.429688 60.75 C 39.347656 60.75 39.269531 60.777344 39.203125 60.832031 C 39.136719 60.878906 39.085938 60.949219 39.058594 61.042969 C 39.015625 61.179688 38.992188 61.332031 38.992188 61.5 L 38.992188 62.703125 Z M 41.589844 62.414063 C 41.445313 62.539063 41.304688 62.625 41.171875 62.671875 C 41.039063 62.722656 40.894531 62.75 40.738281 62.75 C 40.488281 62.75 40.292969 62.6875 40.15625 62.5625 C 40.019531 62.441406 39.953125 62.28125 39.953125 62.089844 C 39.953125 61.976563 39.976563 61.875 40.027344 61.78125 C 40.082031 61.6875 40.148438 61.613281 40.230469 61.558594 C 40.316406 61.503906 40.40625 61.460938 40.511719 61.429688 C 40.589844 61.414063 40.707031 61.390625 40.859375 61.375 C 41.175781 61.335938 41.410156 61.292969 41.558594 61.238281 C 41.558594 61.183594 41.558594 61.152344 41.558594 61.136719 C 41.558594 60.980469 41.523438 60.867188 41.449219 60.800781 C 41.347656 60.714844 41.199219 60.671875 41.003906 60.671875 C 40.816406 60.671875 40.683594 60.707031 40.59375 60.765625 C 40.507813 60.832031 40.441406 60.945313 40.398438 61.109375 L 40.019531 61.054688 C 40.054688 60.894531 40.109375 60.761719 40.191406 60.664063 C 40.269531 60.558594 40.386719 60.480469 40.535156 60.425781 C 40.6875 60.375 40.863281 60.347656 41.058594 60.347656 C 41.257813 60.347656 41.417969 60.367188 41.542969 60.417969 C 41.664063 60.460938 41.753906 60.519531 41.8125 60.589844 C 41.871094 60.664063 41.910156 60.75 41.933594 60.855469 C 41.949219 60.921875 41.953125 61.042969 41.953125 61.214844 L 41.953125 61.734375 C 41.953125 62.09375 41.960938 62.324219 41.980469 62.421875 C 41.996094 62.519531 42.027344 62.609375 42.074219 62.703125 L 41.664063 62.703125 C 41.625 62.617188 41.601563 62.519531 41.589844 62.414063 Z M 41.558594 61.542969 C 41.417969 61.601563 41.203125 61.652344 40.921875 61.691406 C 40.757813 61.714844 40.644531 61.738281 40.578125 61.769531 C 40.511719 61.796875 40.460938 61.839844 40.425781 61.894531 C 40.386719 61.949219 40.371094 62.011719 40.371094 62.082031 C 40.371094 62.183594 40.410156 62.269531 40.488281 62.339844 C 40.566406 62.40625 40.683594 62.441406 40.835938 62.441406 C 40.984375 62.441406 41.117188 62.414063 41.234375 62.34375 C 41.351563 62.277344 41.441406 62.1875 41.496094 62.074219 C 41.535156 61.988281 41.558594 61.859375 41.558594 61.6875 Z M 42.554688 63.585938 L 42.554688 60.394531 L 42.910156 60.394531 L 42.910156 60.699219 C 42.992188 60.582031 43.089844 60.492188 43.195313 60.433594 C 43.300781 60.375 43.425781 60.347656 43.578125 60.347656 C 43.773438 60.347656 43.949219 60.394531 44.097656 60.5 C 44.246094 60.597656 44.359375 60.742188 44.4375 60.925781 C 44.515625 61.109375 44.554688 61.308594 44.554688 61.53125 C 44.554688 61.765625 44.511719 61.976563 44.425781 62.167969 C 44.34375 62.351563 44.21875 62.5 44.058594 62.597656 C 43.898438 62.703125 43.726563 62.75 43.550781 62.75 C 43.417969 62.75 43.304688 62.722656 43.199219 62.671875 C 43.097656 62.609375 43.011719 62.542969 42.945313 62.457031 L 42.945313 63.585938 Z M 42.910156 61.5625 C 42.910156 61.855469 42.96875 62.074219 43.089844 62.214844 C 43.207031 62.355469 43.355469 62.429688 43.523438 62.429688 C 43.699219 62.429688 43.84375 62.355469 43.96875 62.207031 C 44.09375 62.0625 44.152344 61.835938 44.152344 61.527344 C 44.152344 61.234375 44.09375 61.015625 43.972656 60.875 C 43.851563 60.726563 43.707031 60.652344 43.542969 60.652344 C 43.375 60.652344 43.230469 60.730469 43.101563 60.882813 C 42.972656 61.042969 42.910156 61.265625 42.910156 61.5625 Z M 45.023438 62.703125 L 45.023438 59.519531 L 45.414063 59.519531 L 45.414063 60.667969 C 45.597656 60.457031 45.824219 60.347656 46.101563 60.347656 C 46.269531 60.347656 46.417969 60.378906 46.542969 60.445313 C 46.667969 60.515625 46.757813 60.605469 46.8125 60.726563 C 46.867188 60.84375 46.894531 61.015625 46.894531 61.242188 L 46.894531 62.703125 L 46.503906 62.703125 L 46.503906 61.242188 C 46.503906 61.046875 46.460938 60.90625 46.378906 60.816406 C 46.292969 60.726563 46.175781 60.683594 46.019531 60.683594 C 45.90625 60.683594 45.796875 60.714844 45.695313 60.773438 C 45.59375 60.832031 45.523438 60.917969 45.480469 61.015625 C 45.4375 61.125 45.414063 61.261719 45.414063 61.441406 L 45.414063 62.703125 Z M 47.492188 59.519531 L 47.882813 59.519531 L 47.882813 59.964844 L 47.492188 59.964844 Z M 47.492188 60.394531 L 47.882813 60.394531 L 47.882813 62.699219 L 47.492188 62.699219 Z M 49.984375 61.855469 L 50.367188 61.914063 C 50.324219 62.171875 50.21875 62.375 50.046875 62.523438 C 49.875 62.675781 49.660156 62.75 49.410156 62.75 C 49.097656 62.75 48.84375 62.644531 48.652344 62.441406 C 48.460938 62.234375 48.363281 61.9375 48.363281 61.554688 C 48.363281 61.308594 48.40625 61.089844 48.488281 60.902344 C 48.570313 60.71875 48.695313 60.582031 48.863281 60.484375 C 49.03125 60.390625 49.214844 60.347656 49.414063 60.347656 C 49.664063 60.347656 49.867188 60.414063 50.027344 60.539063 C 50.183594 60.664063 50.289063 60.839844 50.332031 61.074219 L 49.953125 61.132813 C 49.917969 60.976563 49.855469 60.859375 49.761719 60.78125 C 49.671875 60.707031 49.558594 60.667969 49.429688 60.667969 C 49.230469 60.667969 49.074219 60.734375 48.949219 60.875 C 48.824219 61.019531 48.765625 61.238281 48.765625 61.542969 C 48.765625 61.855469 48.824219 62.082031 48.941406 62.21875 C 49.0625 62.359375 49.214844 62.429688 49.40625 62.429688 C 49.558594 62.429688 49.6875 62.382813 49.789063 62.292969 C 49.894531 62.195313 49.957031 62.050781 49.984375 61.855469 Z M 52.429688 60.976563 C 52.265625 60.917969 52.148438 60.832031 52.070313 60.722656 C 51.992188 60.613281 51.953125 60.480469 51.953125 60.332031 C 51.953125 60.09375 52.035156 59.902344 52.199219 59.742188 C 52.367188 59.585938 52.585938 59.507813 52.863281 59.507813 C 53.140625 59.507813 53.363281 59.585938 53.53125 59.75 C 53.703125 59.914063 53.785156 60.105469 53.785156 60.335938 C 53.785156 60.484375 53.746094 60.613281 53.671875 60.722656 C 53.59375 60.832031 53.476563 60.917969 53.320313 60.976563 C 53.511719 61.042969 53.660156 61.140625 53.761719 61.289063 C 53.863281 61.425781 53.914063 61.59375 53.914063 61.792969 C 53.914063 62.0625 53.816406 62.292969 53.625 62.476563 C 53.433594 62.664063 53.183594 62.753906 52.867188 62.753906 C 52.554688 62.753906 52.304688 62.664063 52.109375 62.472656 C 51.917969 62.292969 51.824219 62.058594 51.824219 61.78125 C 51.824219 61.574219 51.875 61.398438 51.980469 61.261719 C 52.085938 61.125 52.234375 61.027344 52.429688 60.976563 Z M 52.351563 60.3125 C 52.351563 60.464844 52.398438 60.585938 52.496094 60.683594 C 52.589844 60.777344 52.71875 60.824219 52.875 60.824219 C 53.023438 60.824219 53.148438 60.777344 53.242188 60.683594 C 53.339844 60.589844 53.386719 60.472656 53.386719 60.335938 C 53.386719 60.191406 53.335938 60.070313 53.238281 59.972656 C 53.140625 59.875 53.015625 59.832031 52.867188 59.832031 C 52.71875 59.832031 52.59375 59.875 52.496094 59.96875 C 52.398438 60.066406 52.351563 60.179688 52.351563 60.3125 Z M 52.222656 61.78125 C 52.222656 61.894531 52.25 62 52.300781 62.105469 C 52.351563 62.210938 52.429688 62.292969 52.535156 62.347656 C 52.640625 62.402344 52.753906 62.433594 52.871094 62.433594 C 53.058594 62.433594 53.214844 62.375 53.335938 62.253906 C 53.453125 62.132813 53.515625 61.980469 53.515625 61.796875 C 53.515625 61.609375 53.453125 61.457031 53.328125 61.332031 C 53.203125 61.207031 53.046875 61.144531 52.859375 61.144531 C 52.675781 61.144531 52.523438 61.207031 52.402344 61.332031 C 52.28125 61.449219 52.222656 61.601563 52.222656 61.78125 Z M 55.761719 62.703125 L 55.371094 62.703125 L 55.371094 60.210938 C 55.277344 60.300781 55.152344 60.390625 55 60.480469 C 54.847656 60.570313 54.710938 60.636719 54.589844 60.683594 L 54.589844 60.304688 C 54.808594 60.207031 55 60.082031 55.164063 59.929688 C 55.328125 59.789063 55.441406 59.644531 55.511719 59.507813 L 55.761719 59.507813 Z M 56.789063 59.933594 L 56.789063 59.558594 L 58.84375 59.558594 L 58.84375 59.863281 C 58.640625 60.082031 58.441406 60.363281 58.242188 60.722656 C 58.042969 61.082031 57.890625 61.445313 57.78125 61.824219 C 57.703125 62.089844 57.652344 62.382813 57.632813 62.703125 L 57.234375 62.703125 C 57.238281 62.449219 57.285156 62.144531 57.378906 61.792969 C 57.472656 61.4375 57.609375 61.09375 57.785156 60.765625 C 57.957031 60.4375 58.144531 60.164063 58.34375 59.933594 Z M 59.835938 60.976563 C 59.675781 60.917969 59.554688 60.832031 59.476563 60.722656 C 59.398438 60.613281 59.359375 60.480469 59.359375 60.332031 C 59.359375 60.09375 59.441406 59.902344 59.609375 59.742188 C 59.777344 59.585938 59.996094 59.507813 60.273438 59.507813 C 60.550781 59.507813 60.773438 59.585938 60.941406 59.75 C 61.109375 59.914063 61.195313 60.105469 61.195313 60.335938 C 61.195313 60.484375 61.15625 60.613281 61.078125 60.722656 C 61 60.832031 60.886719 60.917969 60.726563 60.976563 C 60.921875 61.042969 61.070313 61.140625 61.171875 61.289063 C 61.273438 61.425781 61.324219 61.59375 61.324219 61.792969 C 61.324219 62.0625 61.226563 62.292969 61.035156 62.476563 C 60.84375 62.664063 60.589844 62.753906 60.277344 62.753906 C 59.964844 62.753906 59.710938 62.664063 59.519531 62.472656 C 59.328125 62.292969 59.230469 62.058594 59.230469 61.78125 C 59.230469 61.574219 59.285156 61.398438 59.390625 61.261719 C 59.496094 61.125 59.644531 61.027344 59.835938 60.976563 Z M 59.761719 60.3125 C 59.761719 60.464844 59.808594 60.585938 59.902344 60.683594 C 60 60.777344 60.125 60.824219 60.28125 60.824219 C 60.433594 60.824219 60.554688 60.777344 60.652344 60.683594 C 60.746094 60.589844 60.792969 60.472656 60.792969 60.335938 C 60.792969 60.191406 60.746094 60.070313 60.648438 59.972656 C 60.550781 59.875 60.425781 59.832031 60.277344 59.832031 C 60.128906 59.832031 60.003906 59.875 59.90625 59.96875 C 59.808594 60.066406 59.761719 60.179688 59.761719 60.3125 Z M 59.632813 61.78125 C 59.632813 61.894531 59.65625 62 59.707031 62.105469 C 59.761719 62.210938 59.839844 62.292969 59.945313 62.347656 C 60.046875 62.402344 60.160156 62.433594 60.28125 62.433594 C 60.46875 62.433594 60.621094 62.375 60.742188 62.253906 C 60.863281 62.132813 60.921875 61.980469 60.921875 61.796875 C 60.921875 61.609375 60.859375 61.457031 60.738281 61.332031 C 60.613281 61.207031 60.457031 61.144531 60.269531 61.144531 C 60.082031 61.144531 59.929688 61.207031 59.8125 61.332031 C 59.691406 61.449219 59.632813 61.601563 59.632813 61.78125 Z M 62.953125 62.703125 L 62.953125 61.941406 L 61.574219 61.941406 L 61.574219 61.582031 L 63.023438 59.519531 L 63.34375 59.519531 L 63.34375 61.582031 L 63.773438 61.582031 L 63.773438 61.941406 L 63.34375 61.941406 L 63.34375 62.703125 Z M 62.953125 61.582031 L 62.953125 60.148438 L 61.957031 61.582031 Z M 64.777344 60.976563 C 64.613281 60.917969 64.496094 60.832031 64.417969 60.722656 C 64.339844 60.613281 64.300781 60.480469 64.300781 60.332031 C 64.300781 60.09375 64.382813 59.902344 64.546875 59.742188 C 64.714844 59.585938 64.933594 59.507813 65.210938 59.507813 C 65.488281 59.507813 65.710938 59.585938 65.878906 59.75 C 66.050781 59.914063 66.132813 60.105469 66.132813 60.335938 C 66.132813 60.484375 66.09375 60.613281 66.019531 60.722656 C 65.941406 60.832031 65.824219 60.917969 65.667969 60.976563 C 65.859375 61.042969 66.007813 61.140625 66.109375 61.289063 C 66.210938 61.425781 66.261719 61.59375 66.261719 61.792969 C 66.261719 62.0625 66.164063 62.292969 65.972656 62.476563 C 65.78125 62.664063 65.53125 62.753906 65.214844 62.753906 C 64.902344 62.753906 64.652344 62.664063 64.457031 62.472656 C 64.265625 62.292969 64.171875 62.058594 64.171875 61.78125 C 64.171875 61.574219 64.222656 61.398438 64.328125 61.261719 C 64.433594 61.125 64.582031 61.027344 64.777344 60.976563 Z M 64.699219 60.3125 C 64.699219 60.464844 64.746094 60.585938 64.84375 60.683594 C 64.9375 60.777344 65.066406 60.824219 65.222656 60.824219 C 65.371094 60.824219 65.496094 60.777344 65.589844 60.683594 C 65.6875 60.589844 65.734375 60.472656 65.734375 60.335938 C 65.734375 60.191406 65.683594 60.070313 65.585938 59.972656 C 65.488281 59.875 65.363281 59.832031 65.214844 59.832031 C 65.066406 59.832031 64.941406 59.875 64.84375 59.96875 C 64.746094 60.066406 64.699219 60.179688 64.699219 60.3125 Z M 64.570313 61.78125 C 64.570313 61.894531 64.597656 62 64.648438 62.105469 C 64.699219 62.210938 64.777344 62.292969 64.882813 62.347656 C 64.988281 62.402344 65.101563 62.433594 65.21875 62.433594 C 65.40625 62.433594 65.5625 62.375 65.683594 62.253906 C 65.800781 62.132813 65.863281 61.980469 65.863281 61.796875 C 65.863281 61.609375 65.800781 61.457031 65.675781 61.332031 C 65.550781 61.207031 65.394531 61.144531 65.207031 61.144531 C 65.023438 61.144531 64.871094 61.207031 64.75 61.332031 C 64.628906 61.449219 64.570313 61.601563 64.570313 61.78125 Z M 68.109375 62.703125 L 67.71875 62.703125 L 67.71875 60.210938 C 67.625 60.300781 67.5 60.390625 67.347656 60.480469 C 67.195313 60.570313 67.058594 60.636719 66.9375 60.683594 L 66.9375 60.304688 C 67.15625 60.207031 67.347656 60.082031 67.511719 59.929688 C 67.675781 59.789063 67.789063 59.644531 67.859375 59.507813 L 68.109375 59.507813 Z M 69.714844 60.976563 C 69.554688 60.917969 69.433594 60.832031 69.355469 60.722656 C 69.277344 60.613281 69.238281 60.480469 69.238281 60.332031 C 69.238281 60.09375 69.320313 59.902344 69.488281 59.742188 C 69.652344 59.585938 69.875 59.507813 70.148438 59.507813 C 70.425781 59.507813 70.652344 59.585938 70.820313 59.75 C 70.988281 59.914063 71.074219 60.105469 71.074219 60.335938 C 71.074219 60.484375 71.035156 60.613281 70.957031 60.722656 C 70.878906 60.832031 70.761719 60.917969 70.605469 60.976563 C 70.800781 61.042969 70.949219 61.140625 71.050781 61.289063 C 71.148438 61.425781 71.199219 61.59375 71.199219 61.792969 C 71.199219 62.0625 71.105469 62.292969 70.914063 62.476563 C 70.722656 62.664063 70.46875 62.753906 70.15625 62.753906 C 69.84375 62.753906 69.589844 62.664063 69.398438 62.472656 C 69.207031 62.292969 69.109375 62.058594 69.109375 61.78125 C 69.109375 61.574219 69.164063 61.398438 69.265625 61.261719 C 69.371094 61.125 69.523438 61.027344 69.714844 60.976563 Z M 69.636719 60.3125 C 69.636719 60.464844 69.6875 60.585938 69.78125 60.683594 C 69.878906 60.777344 70.003906 60.824219 70.160156 60.824219 C 70.3125 60.824219 70.433594 60.777344 70.53125 60.683594 C 70.625 60.589844 70.671875 60.472656 70.671875 60.335938 C 70.671875 60.191406 70.625 60.070313 70.527344 59.972656 C 70.429688 59.875 70.304688 59.832031 70.15625 59.832031 C 70.003906 59.832031 69.882813 59.875 69.785156 59.96875 C 69.6875 60.066406 69.636719 60.179688 69.636719 60.3125 Z M 69.507813 61.78125 C 69.507813 61.894531 69.535156 62 69.585938 62.105469 C 69.640625 62.210938 69.71875 62.292969 69.824219 62.347656 C 69.925781 62.402344 70.039063 62.433594 70.160156 62.433594 C 70.347656 62.433594 70.5 62.375 70.621094 62.253906 C 70.742188 62.132813 70.800781 61.980469 70.800781 61.796875 C 70.800781 61.609375 70.738281 61.457031 70.617188 61.332031 C 70.492188 61.207031 70.335938 61.144531 70.144531 61.144531 C 69.960938 61.144531 69.808594 61.207031 69.6875 61.332031 C 69.570313 61.449219 69.507813 61.601563 69.507813 61.78125 Z M 72.832031 62.703125 L 72.832031 61.941406 L 71.449219 61.941406 L 71.449219 61.582031 L 72.902344 59.519531 L 73.222656 59.519531 L 73.222656 61.582031 L 73.652344 61.582031 L 73.652344 61.941406 L 73.222656 61.941406 L 73.222656 62.703125 Z M 72.832031 61.582031 L 72.832031 60.148438 L 71.835938 61.582031 Z M 75.519531 62.703125 L 75.128906 62.703125 L 75.128906 60.210938 C 75.035156 60.300781 74.910156 60.390625 74.757813 60.480469 C 74.605469 60.570313 74.46875 60.636719 74.347656 60.683594 L 74.347656 60.304688 C 74.566406 60.207031 74.753906 60.082031 74.917969 59.929688 C 75.082031 59.789063 75.199219 59.644531 75.265625 59.507813 L 75.519531 59.507813 Z M 75.519531 62.703125 "/>
</g>
</g>
</svg>
